<svg width="87" height="87" viewBox="0 0 87 87" fill="none" xmlns="http://www.w3.org/2000/svg">
<path d="M42.452 25.7393C42.3343 26.0405 42.254 26.355 42.2129 26.6758C42.1664 27.0065 42.1548 27.3411 42.1783 27.6742C42.2262 28.3612 42.3919 29.0349 42.6683 29.6657C42.8093 29.987 42.9697 30.2993 43.1487 30.601C43.3332 30.9041 43.5381 31.1975 43.7545 31.4849C43.9703 31.7727 44.2044 32.0508 44.4454 32.3251C44.565 32.4628 44.6907 32.5968 44.8139 32.7329L45.1987 33.1312C45.7485 33.6867 46.3285 34.2578 46.9005 34.7719C47.4821 35.2913 48.1029 35.7667 48.7443 36.2592C49.1875 36.5939 49.6131 36.9512 50.0194 37.3299C50.4351 37.7303 50.8091 38.1717 51.1359 38.6475C51.4558 39.1208 51.7365 39.6194 51.9753 40.1383L52.1413 40.5247L52.2241 40.7181C52.2381 40.7518 52.251 40.7794 52.2649 40.8185L52.3061 40.9442C52.3581 41.1058 52.3981 41.2709 52.4259 41.4383C52.445 41.5964 52.4693 41.7574 52.4722 41.9108C52.4935 42.5134 52.4263 43.116 52.2727 43.6991C52.128 44.3039 51.874 44.8773 51.5232 45.3909L51.3625 45.5927C51.3059 45.6591 51.2455 45.7223 51.1816 45.7818C51.1511 45.8114 51.1173 45.8458 51.0889 45.8709L51.0059 45.9432L50.8394 46.0873C50.7255 46.1816 50.6011 46.2696 50.4819 46.3603C50.3583 46.4434 50.2338 46.5248 50.1086 46.6048C49.6095 46.903 49.0825 47.1517 48.535 47.3473C47.4724 47.7135 46.3706 47.9538 45.2521 48.0631C44.1571 48.1762 43.0554 48.2117 41.9555 48.1691C39.7764 48.0814 37.6104 47.7887 35.4862 47.295C35.1607 47.2199 34.8332 47.144 34.5119 47.0593L34.0301 46.9333L33.5811 46.8304C32.9875 46.6947 32.3819 46.6179 31.7733 46.6011C31.1872 46.5821 30.6013 46.646 30.0331 46.7909C29.4905 46.9232 28.9805 47.1645 28.5341 47.5C27.6518 48.1559 27.1844 49.2666 27.1615 50.4343C27.1523 51.0318 27.2396 51.6268 27.4201 52.1963C27.6013 52.7818 27.8477 53.3452 28.1545 53.8757C28.2353 54.0077 28.3042 54.1463 28.3949 54.2729L28.6556 54.6591C28.8455 54.9066 29.0268 55.1574 29.2411 55.3966C29.4439 55.6394 29.6641 55.8784 29.8771 56.1191C30.0936 56.357 30.2991 56.6081 30.533 56.8252L31.2178 57.4971C31.4554 57.7111 31.7007 57.9168 31.9415 58.1274C32.0637 58.2306 32.1806 58.3402 32.307 58.4382L32.6887 58.7295L33.0703 59.0209C33.197 59.1186 33.3234 59.2169 33.4586 59.3029L34.2557 59.8389C34.3862 59.932 34.5268 60.0092 34.6644 60.0911L35.0782 60.335L35.492 60.5791C35.632 60.6568 35.7764 60.7264 35.9184 60.8005C36.2044 60.9447 36.4865 61.0969 36.7754 61.235C39.3443 62.4355 42.1035 63.1773 44.928 63.4266C45.6585 63.5082 46.2629 63.5228 46.7615 63.587L46.9435 63.6095L47.1154 63.6226C47.2269 63.632 47.3322 63.6428 47.4313 63.6548C47.6297 63.6789 47.8041 63.7078 47.9569 63.7407C48.4018 63.8365 48.4179 63.9646 48.0462 64.0963C47.7718 64.1839 47.4908 64.2494 47.2059 64.2923C47.1129 64.3066 47.0143 64.3272 46.91 64.3357C46.8056 64.3435 46.6959 64.3517 46.5809 64.3603C46.3506 64.3754 46.0995 64.3876 45.8274 64.3969C44.3927 64.4042 42.9614 64.2543 41.5593 63.95C38.3628 63.2392 35.3416 61.894 32.6746 59.994C31.3518 59.0395 30.1332 57.9484 29.0391 56.7386L28.6284 56.2889L28.2232 55.8263C28.0926 55.6654 27.9655 55.4994 27.8365 55.3359C27.7113 55.1691 27.5957 54.9944 27.475 54.8237C26.9972 54.1241 26.6154 53.3636 26.3398 52.5626C26.2707 52.3363 26.1915 52.1117 26.1427 51.8754C26.1167 51.758 26.0833 51.6422 26.0638 51.5224L26.0061 51.162C25.9313 50.6715 25.9172 50.1736 25.9641 49.6796C25.9732 49.554 25.99 49.4291 26.0146 49.3056C26.0325 49.1803 26.0576 49.0562 26.0899 48.9339L26.1914 48.5669L26.328 48.2101C26.5257 47.7426 26.7991 47.3108 27.1372 46.9321C27.6767 46.3501 28.3437 45.9011 29.086 45.6203C29.8007 45.3563 30.5549 45.2149 31.3167 45.202L31.5961 45.1933C31.6887 45.1943 31.7808 45.1994 31.8732 45.2023C32.0572 45.2118 32.2437 45.2097 32.4248 45.2339C32.6068 45.2534 32.7897 45.2703 32.971 45.2926L33.5092 45.382C33.6897 45.4072 33.8646 45.4565 34.0423 45.4937C34.2182 45.5339 34.4018 45.573 34.561 45.6162C34.8906 45.7025 35.2198 45.7829 35.5481 45.8614C36.8629 46.1727 38.1939 46.4111 39.5349 46.5756C40.8671 46.7423 42.209 46.8196 43.5515 46.8068C44.5381 46.7992 45.5222 46.7065 46.4928 46.5298C47.4393 46.3671 48.3546 46.0576 49.2056 45.6125C49.4068 45.5007 49.6008 45.3763 49.7863 45.2401C49.8757 45.1696 49.9686 45.1079 50.0544 45.0269L50.1855 44.9117L50.2183 44.8829L50.2428 44.8579L50.2914 44.8091L50.3408 44.7611L50.3843 44.7052C50.4128 44.6667 50.4442 44.6334 50.4718 44.5917C50.5296 44.5061 50.5826 44.4173 50.6304 44.3257C50.7327 44.1307 50.8188 43.9276 50.8878 43.7185C51.0278 43.2847 51.113 42.8351 51.1414 42.3802C51.1531 42.1625 51.1471 41.9443 51.1235 41.7276C51.1125 41.6278 51.0959 41.5288 51.0737 41.4309L51.0341 41.3016C51.0307 41.2904 51.0288 41.2808 51.0242 41.2681L51.0071 41.2257L50.974 41.1407C50.6886 40.3348 50.2895 39.5738 49.7887 38.8809C49.2849 38.2078 48.6396 37.6379 47.9354 37.066C47.2339 36.4962 46.5071 35.9 45.8382 35.2497L45.5865 35.0063L45.3443 34.7639L44.8604 34.2746C44.5386 33.9457 44.22 33.6099 43.9096 33.2633C43.2722 32.5701 42.707 31.814 42.2226 31.0065C41.7238 30.1824 41.3794 29.2743 41.2065 28.3266C41.0149 27.3605 41.0675 26.3618 41.3596 25.4212C41.5155 24.9464 41.7428 24.4982 42.0336 24.0917C42.1806 23.8857 42.345 23.6927 42.525 23.5147C42.7084 23.3381 42.9073 23.1785 43.1193 23.0375C43.4479 22.8229 43.7997 22.6459 44.1679 22.51C44.5221 22.3748 44.8729 22.2721 45.2151 22.1778C45.8999 21.9915 46.55 21.8236 47.17 21.6062C48.3667 21.1814 49.4939 20.5817 50.5149 19.8266C50.6848 19.6981 50.8677 19.5878 51.0605 19.4974C51.1953 19.4443 51.2818 19.4476 51.3129 19.5055C51.3439 19.5633 51.3182 19.6748 51.2282 19.8371C51.0934 20.063 50.9301 20.2706 50.7422 20.4547C50.3936 20.8043 50.0224 21.1306 49.631 21.4316C49.2256 21.738 48.797 22.0123 48.3489 22.2519C47.8979 22.4914 47.4308 22.6995 46.9511 22.8746C46.4766 23.0508 46.0013 23.1941 45.5499 23.3347C45.3637 23.393 45.1815 23.4486 45.0055 23.5092C44.8262 23.563 44.6567 23.6251 44.4911 23.6875C44.1777 23.8028 43.8806 23.9582 43.6071 24.1497C43.343 24.3396 43.111 24.5706 42.92 24.8338C42.7198 25.1067 42.5571 25.4051 42.4363 25.7212L42.452 25.7393Z" fill="black"/>
<path d="M47.2321 18.1413C47.6216 18.2166 48.018 18.2714 48.4224 18.312C48.6377 18.3396 48.8549 18.3504 49.0719 18.3443C49.8326 18.3011 50.616 18.2383 51.4021 18.2352C51.5315 18.2348 51.6594 18.2639 51.7758 18.3204C51.8923 18.3769 51.9944 18.4592 52.0742 18.5611C52.1541 18.663 52.2096 18.7818 52.2366 18.9084C52.2636 19.035 52.2613 19.1661 52.23 19.2917L52.2051 19.3882L51.9118 20.5335C51.7366 21.2106 51.5726 21.882 51.4368 22.5565C51.2989 23.2308 51.1907 23.9112 51.1021 24.6062C51.0628 24.8208 50.9923 25.0285 50.8929 25.2227C50.8054 25.4163 50.5651 25.5234 50.2589 25.5743C49.8131 25.649 49.3622 25.4825 49.2836 25.1782C49.2415 24.9846 49.2491 24.7834 49.3057 24.5935C49.5234 23.7174 49.6501 22.8212 49.6836 21.9191C49.6953 21.6665 49.6856 21.3961 49.8023 21.1747C50.1728 20.4709 50.2694 19.7011 50.5709 18.9955L50.6165 18.8856L51.3226 19.8995C50.8194 19.8334 50.3109 19.8315 49.7982 19.7962C48.8174 19.7296 47.7946 19.6626 46.7786 19.5337C46.5771 19.5097 46.3819 19.4481 46.2031 19.3522C46.014 19.2408 45.8489 19.0931 45.7172 18.9176C45.6857 18.8832 45.6627 18.8419 45.65 18.7971C45.6374 18.7522 45.6354 18.705 45.6444 18.6592C45.6719 18.5479 45.734 18.4481 45.8218 18.3743L45.9243 18.2983C45.9559 18.2807 45.989 18.2658 46.0232 18.2539C46.0872 18.2264 46.1528 18.2026 46.2196 18.1828C46.3465 18.1569 46.4746 18.1378 46.6036 18.1255C46.8128 18.1226 47.0219 18.1366 47.2289 18.1672L47.2321 18.1413Z" fill="black"/>
</svg>
