<svg width="75" height="75" viewBox="0 0 75 75" fill="none" xmlns="http://www.w3.org/2000/svg">
<g clip-path="url(#clip0_51_189)">
<path d="M29.5412 47.6065C28.9648 47.6074 28.3864 47.5987 27.7995 47.5665C27.5056 47.5497 27.2106 47.5291 26.9081 47.493L26.6814 47.4662L26.4489 47.4294C26.2972 47.409 26.1299 47.3672 25.9702 47.3334C25.7903 47.2953 25.6309 47.1922 25.5223 47.0439C25.4138 46.8956 25.3638 46.7124 25.382 46.5295L25.3844 46.5071C25.6258 44.0999 26.21 41.7396 27.1192 39.4977L27.4709 38.6611C27.5954 38.3855 27.7394 38.1185 27.8729 37.8469L28.0771 37.4414L28.1792 37.2387C28.2131 37.1711 28.255 37.1076 28.2925 37.0419L28.7556 36.2601C28.8339 36.1305 28.9076 35.9982 28.9898 35.8711L29.2478 35.4968L29.7642 34.7491C29.9443 34.5057 30.1395 34.2733 30.3266 34.0351C30.5186 33.8009 30.6958 33.5543 30.9079 33.3371L31.7183 32.4567L32.5868 31.6325C32.7279 31.4911 32.8847 31.3672 33.0383 31.2397L33.4997 30.8581L33.7305 30.6674L33.8459 30.5721L33.9673 30.4846L34.4531 30.1348L34.9389 29.7853C35.1027 29.6717 35.2757 29.5719 35.4437 29.4645L35.951 29.148L36.2048 28.99L36.468 28.8486C36.8199 28.6622 37.1673 28.4668 37.5225 28.288L38.607 27.7914C42.3322 26.1856 46.4876 25.6803 50.4931 26.1745C52.4992 26.4237 54.4683 26.9115 56.3588 27.6275C58.246 28.3443 60.049 29.266 61.7352 30.3761L61.1235 30.2966L61.2897 30.2398L60.847 31.1121C60.1152 28.8061 59.3953 26.4497 58.9786 24.0063C58.767 22.7843 58.6331 21.5501 58.5777 20.3112C58.525 19.0728 58.5463 17.8323 58.6416 16.5964L59.0388 17.304C57.4181 16.486 55.736 15.7958 54.0079 15.2397C53.1453 14.9638 52.2697 14.7353 51.3886 14.5351C50.5047 14.3499 49.6153 14.1914 48.7193 14.0892C44.8245 13.6315 40.8221 14.1023 37.1991 15.5858C35.383 16.3217 33.6677 17.2852 32.0944 18.4534C30.5161 19.624 29.0777 20.9723 27.8078 22.4717C25.2546 25.4682 23.3617 29.0143 22.1117 32.7641C20.8794 36.5408 20.2435 40.4865 20.2272 44.4591L20.2271 44.4631C20.2261 44.5861 20.1923 44.7066 20.1291 44.8121C20.066 44.9176 19.9758 45.0044 19.8679 45.0634C19.7599 45.1224 19.6382 45.1515 19.5153 45.1477C19.3923 45.1439 19.2726 45.1073 19.1686 45.0418C18.1 44.3515 17.0849 43.5819 16.1316 42.7396C15.1815 41.917 14.2733 41.0598 13.3825 40.1905L14.5306 39.5431C14.7197 40.3524 14.9122 41.1609 15.108 41.9686C15.3053 42.776 15.5062 43.5826 15.7106 44.3883C16.464 47.3451 17.2344 50.3291 18.043 53.2342C18.4315 54.6249 18.729 55.7775 18.9505 56.7284C19.0592 57.2044 19.1529 57.6288 19.2246 58.0086C19.2599 58.1973 19.2965 58.3859 19.3097 58.5167C19.3266 58.6604 19.3367 58.803 19.349 58.9473C19.4166 59.8128 19.5598 60.0705 19.1024 59.3984C18.9528 59.163 18.8227 58.9157 18.7134 58.6591C18.658 58.5276 18.5981 58.3857 18.5339 58.2333L18.3463 57.7653C18.0863 57.1005 17.7903 56.2725 17.4718 55.2939C16.6629 52.8179 15.8783 50.0802 15.198 47.4746C14.5345 44.9305 13.9086 42.3808 13.3203 39.8254L13.3197 39.8225C13.2866 39.6789 13.3119 39.528 13.3901 39.403C13.4683 39.2781 13.5929 39.1893 13.7365 39.1562C13.8274 39.1357 13.922 39.1383 14.0118 39.1636C14.1015 39.1888 14.1835 39.236 14.2504 39.3009C15.1286 40.162 16.0201 41.0056 16.9416 41.8045C17.8456 42.605 18.8088 43.336 19.8229 43.9914L18.9897 44.4501C19.026 40.7737 19.4997 37.0917 20.5239 33.5492C21.5415 30.0096 23.0887 26.6027 25.2093 23.5575C25.4539 23.1974 25.7182 22.8484 25.9801 22.4957C26.1126 22.3204 26.252 22.1499 26.3879 21.9764L26.5936 21.7172L26.8074 21.464C27.3746 20.7829 27.9763 20.1314 28.6103 19.5121C29.2388 18.893 29.9011 18.3094 30.5943 17.7638C31.2722 17.2259 31.9812 16.7284 32.7176 16.2739C36.7482 13.7651 41.4161 12.4699 46.1632 12.5432C47.3404 12.5583 48.5153 12.6505 49.6805 12.8191C50.8427 12.9907 51.9936 13.231 53.1274 13.5389C54.259 13.844 55.3728 14.2115 56.4638 14.6396C57.5526 15.0682 58.6186 15.5494 59.6615 16.073C59.7769 16.131 59.8724 16.222 59.9357 16.3345C59.9991 16.447 60.0274 16.5759 60.017 16.7046L60.0167 16.7059C59.9014 18.0996 59.8863 19.4997 59.9716 20.8956L60.0147 21.5174C60.0323 21.7244 60.0563 21.931 60.0768 22.1379L60.1087 22.4482L60.1501 22.7577L60.2353 23.3764C60.3642 24.2 60.5261 25.0201 60.7138 25.8372C60.9078 26.6534 61.123 27.4674 61.3594 28.2794C61.597 29.0915 61.8475 29.9036 62.1026 30.718C62.1506 30.8715 62.1367 31.0377 62.0639 31.1812C61.9911 31.3246 61.8651 31.434 61.7129 31.4859L61.5466 31.5424C61.4574 31.5722 61.3625 31.5815 61.2692 31.5693C61.1759 31.5572 61.0865 31.5241 61.0079 31.4724C59.2054 30.2731 57.259 29.3057 55.2147 28.5929C53.1735 27.8811 51.0463 27.4456 48.8896 27.2978C48.5494 27.2614 48.2076 27.2632 47.8662 27.2563L47.3539 27.2468C47.2685 27.2461 47.1831 27.2417 47.0978 27.2438L46.842 27.2551L45.8185 27.2994C45.4784 27.3269 45.1395 27.3692 44.7998 27.4031C44.6304 27.4238 44.4592 27.4326 44.2913 27.463L43.7867 27.5488L43.2819 27.6343C43.1979 27.6491 43.1133 27.6614 43.0297 27.6783L42.7807 27.7371L41.7842 27.9715C41.4562 28.0648 41.1311 28.1686 40.8042 28.2662C40.4746 28.3562 40.1582 28.4844 39.8386 28.6037C39.5204 28.7262 39.1958 28.8338 38.8892 28.9839L37.9576 29.4067L37.0554 29.8889L36.8297 30.0093C36.7552 30.0506 36.6845 30.0985 36.6117 30.1428L36.1778 30.4134L35.7436 30.6838C35.5984 30.7734 35.4653 30.8806 35.3255 30.9781C35.0511 31.1802 34.7679 31.3712 34.5001 31.582L33.7131 32.2355C33.6483 32.2909 33.58 32.3423 33.5179 32.4008L33.333 32.5774L32.9628 32.9305L32.5923 33.2835C32.4737 33.4059 32.3615 33.5345 32.2457 33.6597L31.9005 34.0376L31.7278 34.2265L31.6417 34.3211L31.5623 34.4215L30.9259 35.2237C30.8737 35.2912 30.8179 35.3561 30.7684 35.4256L30.6238 35.6369L30.3342 36.0595L30.0442 36.4819C29.9471 36.6225 29.8683 36.7747 29.7793 36.9205L29.2608 37.8052L28.803 38.7236L28.6884 38.9532C28.6484 39.0288 28.6125 39.1066 28.5809 39.1861L28.3839 39.6604L28.1866 40.1347C28.122 40.2933 28.05 40.449 28 40.6132C27.7842 41.2638 27.5423 41.9064 27.3854 42.5759C27.0046 43.8963 26.8075 45.2626 26.6374 46.6277L26.2709 46.1109C26.801 46.2204 27.3393 46.2849 27.8802 46.3037C28.438 46.3323 29.0026 46.339 29.5681 46.3359C30.6998 46.3286 31.8367 46.2808 32.9728 46.2144C33.0723 46.2086 33.1709 46.2354 33.2538 46.2908C33.3367 46.3462 33.3992 46.4271 33.4319 46.5212C33.4646 46.6154 33.4657 46.7176 33.435 46.8125C33.4043 46.9073 33.3435 46.9895 33.2618 47.0466L33.2529 47.0527C32.7941 47.3723 32.3245 47.6749 31.882 48.0201C29.6637 49.6746 27.7125 51.5659 25.8595 53.3945C24.0116 55.2308 22.259 57.0235 20.514 58.6095C20.3161 58.7927 20.1359 58.9522 19.9919 59.0686C19.8479 59.1873 19.7414 59.2762 19.6647 59.3423C19.5116 59.4747 19.4712 59.5098 19.5027 59.4343C19.514 59.41 19.5436 59.3461 19.5926 59.2406C19.6338 59.151 19.6776 59.036 19.7244 58.9208C19.7481 58.8618 19.7763 58.8047 19.8088 58.75C19.8547 58.6776 19.9072 58.6097 19.9656 58.547C20.0442 58.4569 20.1287 58.3599 20.2193 58.2559L20.3617 58.0967C20.3864 58.0696 20.4116 58.042 20.4371 58.014L20.4563 57.993C20.4536 57.9771 20.4663 57.976 20.4705 57.9668L20.5083 57.9225C20.7942 57.5842 21.0782 57.2397 21.364 56.8942C21.6515 56.5489 21.9551 56.2172 22.2517 55.8736C22.85 55.192 23.4492 54.4991 24.0678 53.8127C25.304 52.4407 26.5799 51.0657 27.9413 49.7653C29.3711 48.382 30.9205 47.1278 32.5713 46.0176L33.0505 47.4516C31.8935 47.5209 30.7338 47.5709 29.5689 47.5831C29.5601 47.5914 29.5508 47.5992 29.5412 47.6065Z" fill="black"/>
</g>
<defs>
<clipPath id="clip0_51_189">
<rect width="60.7209" height="60.7209" fill="white" transform="translate(15.7157) rotate(15)"/>
</clipPath>
</defs>
</svg>
