<svg width="46" height="69" viewBox="0 0 46 69" fill="none" xmlns="http://www.w3.org/2000/svg">
<path d="M22.7551 59.2448L39.4149 53.1811M22.7551 59.2448L23.7655 62.0215C25.4399 66.6219 30.5267 68.994 35.1272 67.3195C39.7277 65.6451 42.0997 60.5583 40.4252 55.9578L39.4149 53.1811M22.7551 59.2448L7.59601 17.5954M39.4149 53.1811L24.2557 11.5318M28.3084 57.2236L13.5659 16.719M33.8616 55.2023L19.1192 14.6978M24.2557 11.5318L10.8728 0.680494L7.59601 17.5954M24.2557 11.5318C24.2557 11.5318 23.072 13.2371 21.9842 13.9308C21.2154 14.421 20.1459 14.6284 19.1192 14.6978M7.59601 17.5954C7.59601 17.5954 9.59861 18.1409 10.8777 17.9732C11.7819 17.8547 12.7347 17.326 13.5659 16.719M9.23419 9.13805L17.5641 6.10622M13.5659 16.719C14.9032 15.7426 15.9259 14.5636 15.9259 14.5636C15.9259 14.5636 17.4672 14.8094 19.1192 14.6978" stroke="black" stroke-linecap="round" stroke-linejoin="round"/>
</svg>
