<svg width="72" height="81" viewBox="0 0 72 81" fill="none" xmlns="http://www.w3.org/2000/svg">
<path d="M31.0606 17.643L30.6575 17.9388L30.6575 17.9388L31.0606 17.643ZM46.8865 33.1359L46.6752 32.6828L46.2098 32.8998L46.4391 33.3593L46.8865 33.1359ZM54.9145 29.3924L55.3732 29.1933L55.1686 28.7222L54.7032 28.9392L54.9145 29.3924ZM64.1246 67.6652L64.5719 67.4419L64.1246 67.6652ZM70.2851 64.7925L70.7437 64.5934L70.2851 64.7925ZM36.2942 18.1802L35.8138 18.0418L36.2942 18.1802ZM62.6173 34.0776C66.9496 39.9804 67.1327 48.7046 64.1625 56.9603C61.1963 65.2048 55.1251 72.8564 47.1406 76.5796L47.5632 77.4859C55.8359 73.6283 62.0661 65.7412 65.1035 57.2988C68.1369 48.8675 68.0258 39.7566 63.4235 33.486L62.6173 34.0776ZM47.1406 76.5796C31.135 84.0431 12.0889 77.0801 4.60135 61.0231L3.69504 61.4457C11.4148 78.0007 31.0545 85.1841 47.5632 77.4859L47.1406 76.5796ZM4.60135 61.0231C-2.88619 44.966 4.02244 25.9 20.028 18.4365L19.6054 17.5302C3.09672 25.2283 -4.0247 44.8906 3.69504 61.4457L4.60135 61.0231ZM28.7805 38.3802C29.635 39.7422 30.7236 40.5221 31.9986 40.8193C33.2534 41.1117 34.6321 40.9234 36.0599 40.4681C38.8984 39.5629 42.1538 37.522 45.3954 35.6056C48.679 33.6644 51.9612 31.8414 54.9587 31.2352C56.4465 30.9343 57.8356 30.9401 59.1047 31.3621C60.3682 31.7822 61.5536 32.6282 62.6173 34.0776L63.4235 33.486C62.2537 31.892 60.9053 30.9069 59.4202 30.4131C57.9406 29.9212 56.3661 29.9304 54.7605 30.2551C51.5711 30.9001 48.1471 32.8172 44.8865 34.7448C41.5838 36.6973 38.4568 38.6541 35.756 39.5154C34.4141 39.9433 33.2339 40.0804 32.2256 39.8454C31.2376 39.6151 30.3591 39.0148 29.6275 37.8487L28.7805 38.3802ZM20.028 18.4365C22.1475 17.4482 24.3086 16.5929 26.2096 16.3651C28.0926 16.1395 29.6272 16.535 30.6575 17.9388L31.4637 17.3471C30.1425 15.5469 28.1795 15.122 26.0906 15.3723C24.0196 15.6204 21.7345 16.5373 19.6054 17.5302L20.028 18.4365ZM30.6575 17.9388C31.6803 19.3323 31.9726 21.0121 31.8348 22.8594C31.6965 24.7133 31.1282 26.6907 30.4761 28.6357C29.833 30.5539 29.0955 32.4729 28.6738 34.11C28.4613 34.935 28.3195 35.7211 28.3108 36.4325C28.3022 37.1443 28.4265 37.8161 28.7805 38.3802L29.6275 37.8487C29.4101 37.5022 29.3035 37.0413 29.3108 36.4446C29.318 35.8475 29.4388 35.149 29.6422 34.3594C30.0523 32.7674 30.7592 30.9372 31.4243 28.9536C32.0803 26.9967 32.6839 24.9196 32.832 22.9338C32.9807 20.9414 32.6741 18.9963 31.4637 17.3471L30.6575 17.9388ZM16.5442 39.1155C17.465 41.0901 16.6148 43.4325 14.6495 44.3489L15.0721 45.2552C17.5405 44.1042 18.6035 41.1654 17.4505 38.6929L16.5442 39.1155ZM14.6495 44.3489C12.6841 45.2654 10.3433 44.411 9.42251 42.4364L8.5162 42.859C9.66917 45.3316 12.6036 46.4063 15.0721 45.2552L14.6495 44.3489ZM9.42251 42.4364C8.50175 40.4619 9.35195 38.1195 11.3173 37.203L10.8947 36.2967C8.42623 37.4478 7.36324 40.3865 8.5162 42.859L9.42251 42.4364ZM11.3173 37.203C13.2826 36.2866 15.6235 37.1409 16.5442 39.1155L17.4505 38.6929C16.2976 36.2204 13.3631 35.1457 10.8947 36.2967L11.3173 37.203ZM17.4502 55.0315C18.371 57.0061 17.5208 59.3485 15.5554 60.2649L15.9781 61.1712C18.4465 60.0202 19.5095 57.0814 18.3565 54.6089L17.4502 55.0315ZM15.5554 60.2649C13.5901 61.1814 11.2492 60.327 10.3285 58.3524L9.42218 58.7751C10.5751 61.2476 13.5096 62.3223 15.9781 61.1712L15.5554 60.2649ZM10.3285 58.3524C9.40773 56.3779 10.2579 54.0355 12.2233 53.119L11.8006 52.2127C9.33221 53.3638 8.26922 56.3025 9.42218 58.7751L10.3285 58.3524ZM12.2233 53.119C14.1886 52.2026 16.5295 53.057 17.4502 55.0315L18.3565 54.6089C17.2036 52.1364 14.2691 51.0617 11.8006 52.2127L12.2233 53.119ZM29.0602 65.9562C29.981 67.9307 29.1308 70.2731 27.1655 71.1896L27.5881 72.0959C30.0565 70.9448 31.1195 68.0061 29.9665 65.5336L29.0602 65.9562ZM27.1655 71.1896C25.2001 72.106 22.8593 71.2517 21.9385 69.2771L21.0322 69.6997C22.1852 72.1722 25.1197 73.2469 27.5881 72.0959L27.1655 71.1896ZM21.9385 69.2771C21.0178 67.3025 21.868 64.9601 23.8333 64.0437L23.4107 63.1374C20.9422 64.2884 19.8792 67.2272 21.0322 69.6997L21.9385 69.2771ZM23.8333 64.0437C25.7986 63.1272 28.1395 63.9816 29.0602 65.9562L29.9665 65.5336C28.8136 63.061 25.8791 61.9863 23.4107 63.1374L23.8333 64.0437ZM44.9435 65.0851C45.8643 67.0597 45.014 69.402 43.0487 70.3185L43.4713 71.2248C45.9398 70.0737 47.0028 67.135 45.8498 64.6625L44.9435 65.0851ZM43.0487 70.3185C41.0834 71.2349 38.7425 70.3806 37.8218 68.406L36.9155 68.8286C38.0684 71.3012 41.0029 72.3758 43.4713 71.2248L43.0487 70.3185ZM37.8218 68.406C36.901 66.4314 37.7512 64.089 39.7165 63.1726L39.2939 62.2663C36.8255 63.4173 35.7625 66.3561 36.9155 68.8286L37.8218 68.406ZM39.7165 63.1726C41.6819 62.2562 44.0227 63.1105 44.9435 65.0851L45.8498 64.6625C44.6968 62.1899 41.7624 61.1152 39.2939 62.2663L39.7165 63.1726ZM57.0719 56.1618C57.9927 58.1364 57.1425 60.4788 55.1772 61.3952L55.5998 62.3015C58.0682 61.1505 59.1312 58.2117 57.9783 55.7392L57.0719 56.1618ZM55.1772 61.3952C53.2118 62.3116 50.871 61.4573 49.9502 59.4827L49.0439 59.9053C50.1969 62.3779 53.1314 63.4526 55.5998 62.3015L55.1772 61.3952ZM49.9502 59.4827C49.0295 57.5081 49.8797 55.1658 51.845 54.2493L51.4224 53.343C48.9539 54.4941 47.891 57.4328 49.0439 59.9053L49.9502 59.4827ZM51.845 54.2493C53.8103 53.3329 56.1512 54.1872 57.0719 56.1618L57.9783 55.7392C56.8253 53.2666 53.8908 52.192 51.4224 53.343L51.845 54.2493ZM47.0978 33.5891L55.1258 29.8455L54.7032 28.9392L46.6752 32.6828L47.0978 33.5891ZM54.4559 29.5915L69.8265 64.9917L70.7437 64.5934L55.3732 29.1933L54.4559 29.5915ZM68.6168 68.199L67.8064 68.5769L68.229 69.4832L69.0395 69.1053L68.6168 68.199ZM64.5719 67.4419L47.3338 32.9126L46.4391 33.3593L63.6772 67.8886L64.5719 67.4419ZM67.8064 68.5769C66.6032 69.138 65.1683 68.6365 64.5719 67.4419L63.6772 67.8886C64.5144 69.5655 66.5322 70.2744 68.229 69.4832L67.8064 68.5769ZM69.8265 64.9917C70.3582 66.2164 69.8201 67.6379 68.6168 68.199L69.0395 69.1053C70.7363 68.3141 71.4902 66.3126 70.7437 64.5934L69.8265 64.9917ZM56.6352 16.4407C58.986 21.482 55.9505 27.983 50.8223 30.3744L51.2449 31.2807C56.7675 28.7055 60.1724 21.6599 57.5415 16.018L56.6352 16.4407ZM50.8223 30.3744C45.7484 32.7404 39.7089 30.5337 37.3342 25.441L36.4279 25.8636C39.0348 31.4543 45.6679 33.8813 51.2449 31.2807L50.8223 30.3744ZM37.3342 25.441C36.2511 23.1183 36.1179 20.5985 36.7747 18.3186L35.8138 18.0418C35.0925 20.5452 35.239 23.3141 36.4279 25.8636L37.3342 25.441ZM36.7747 18.3186C39.4728 8.95328 37.4982 4.47263 35.2996 2.28291C34.2207 1.20838 33.1248 0.729472 32.6832 0.508312C32.6286 0.480988 32.5932 0.46217 32.5705 0.448842C32.5387 0.430145 32.5622 0.439579 32.5964 0.47535C32.6179 0.497805 32.8085 0.712685 32.6681 0.996346C32.6168 1.10005 32.5431 1.15399 32.5115 1.17447C32.4771 1.19679 32.4509 1.20608 32.4471 1.20746C32.4398 1.21007 32.453 1.20495 32.5054 1.19558C32.5532 1.18701 32.6183 1.17753 32.7053 1.16665C32.8799 1.14482 33.117 1.12047 33.4354 1.08743L33.3322 0.0927685C33.0196 0.125203 32.769 0.150894 32.5812 0.17438C32.4114 0.195609 32.2359 0.220852 32.1097 0.266082C32.0734 0.279109 32.0214 0.300424 31.9676 0.335303C31.9166 0.368349 31.8299 0.435406 31.7718 0.552922C31.6178 0.864217 31.8192 1.10957 31.8739 1.16667C31.9412 1.23709 32.0202 1.28535 32.0638 1.311C32.1166 1.34202 32.1767 1.37306 32.2354 1.40246C32.6998 1.63505 33.6474 2.04873 34.5939 2.99145C36.4462 4.83623 38.4507 8.88874 35.8138 18.0418L36.7747 18.3186ZM33.4354 1.08743C34.6049 0.966063 36.3337 1.18976 38.3744 1.78639C40.4047 2.37997 42.7065 3.33176 45.0102 4.63202C49.6243 7.23639 54.196 11.2097 56.6352 16.4407L57.5415 16.018C54.986 10.5378 50.2292 6.42957 45.5017 3.76116C43.1345 2.42503 40.7622 1.44261 38.655 0.826573C36.5584 0.213582 34.6865 -0.047778 33.3322 0.0927685L33.4354 1.08743Z" fill="black"/>
</svg>
