<svg width="56" height="80" viewBox="0 0 56 80" fill="none" xmlns="http://www.w3.org/2000/svg">
<path d="M29.4467 78.9706L29.2354 79.4238C29.4856 79.5405 29.7831 79.4322 29.8998 79.1819L29.4467 78.9706ZM0.64623 65.5407L0.193076 65.3294C0.0763714 65.5797 0.18465 65.8772 0.434921 65.9939L0.64623 65.5407ZM15.3396 45.5988L15.5509 45.1456C15.3006 45.0289 15.0032 45.1372 14.8865 45.3875L15.3396 45.5988ZM35.2784 54.8964L35.7315 55.1077C35.8482 54.8574 35.74 54.5599 35.4897 54.4432L35.2784 54.8964ZM29.1209 68.1012L28.9095 68.5544C29.1598 68.6711 29.4573 68.5628 29.574 68.3126L29.1209 68.1012ZM9.18208 58.8036L8.72893 58.5923C8.61223 58.8426 8.7205 59.1401 8.97077 59.2568L9.18208 58.8036ZM34.6603 4.16533L35.1457 4.28529L35.2654 3.8011L34.7815 3.68024L34.6603 4.16533ZM22.5815 1.14826L22.7027 0.663167L22.2164 0.541697L22.0961 1.0283L22.5815 1.14826ZM45.9964 11.6658L46.4346 11.425C46.3296 11.234 46.113 11.133 45.8991 11.1754L45.9964 11.6658ZM49.6445 18.304L50.0121 18.643C50.1578 18.485 50.1862 18.2516 50.0827 18.0632L49.6445 18.304ZM38.5674 13.1387L38.4702 12.6482C38.2594 12.69 38.0989 12.8619 38.0715 13.075L38.5674 13.1387ZM48.6197 26.2859L48.341 25.8707C48.2654 25.9215 48.205 25.992 48.1665 26.0746L48.6197 26.2859ZM55.2659 29.3851L55.7191 29.5964C55.7576 29.5138 55.7728 29.4223 55.7631 29.3317L55.2659 29.3851ZM54.5084 22.3335L55.0056 22.2801C54.9869 22.1059 54.8785 21.9543 54.7198 21.8803C54.5611 21.8063 54.3752 21.8207 54.2298 21.9183L54.5084 22.3335ZM48.8182 47.8133L47.7919 50.0141L48.6982 50.4367L49.7245 48.2359L48.8182 47.8133ZM11.0361 32.8746L12.0624 30.6738L11.156 30.2512L10.1298 32.452L11.0361 32.8746ZM11.9834 35.444C11.0073 34.9888 10.5873 33.837 11.0361 32.8746L10.1298 32.452C9.44499 33.9205 10.0898 35.6644 11.5608 36.3503L11.9834 35.444ZM47.7919 50.0141C47.3432 50.9765 46.1908 51.3952 45.2147 50.94L44.7921 51.8463C46.2631 52.5323 48.0134 51.9053 48.6982 50.4367L47.7919 50.0141ZM47.8709 45.2439C48.847 45.6991 49.2669 46.8509 48.8182 47.8133L49.7245 48.2359C50.4093 46.7674 49.7645 45.0235 48.2935 44.3376L47.8709 45.2439ZM15.0622 28.8416C13.5912 28.1557 11.8408 28.7826 11.156 30.2512L12.0624 30.6738C12.5111 29.7114 13.6635 29.2927 14.6396 29.7479L15.0622 28.8416ZM29.658 78.5175L0.857539 65.0876L0.434921 65.9939L29.2354 79.4238L29.658 78.5175ZM15.1283 46.0519L35.0671 55.3495L35.4897 54.4432L15.5509 45.1456L15.1283 46.0519ZM34.8252 54.6851L28.6677 67.8899L29.574 68.3126L35.7315 55.1077L34.8252 54.6851ZM29.3322 67.6481L9.39339 58.3505L8.97077 59.2568L28.9095 68.5544L29.3322 67.6481ZM9.63524 59.015L15.7928 45.8101L14.8865 45.3875L8.72893 58.5923L9.63524 59.015ZM22.4603 1.63336L34.5392 4.65043L34.7815 3.68024L22.7027 0.663167L22.4603 1.63336ZM21.0035 7.5283L25.7455 8.71277L25.9878 7.74257L21.2458 6.55811L21.0035 7.5283ZM18.6725 16.9602L23.4145 18.1447L23.6568 17.1745L18.9148 15.99L18.6725 16.9602ZM16.3415 26.3921L21.0835 27.5766L21.3258 26.6064L16.5838 25.4219L16.3415 26.3921ZM19.838 12.2442L26.951 14.021L27.1933 13.0508L20.0803 11.2741L19.838 12.2442ZM17.507 21.6761L24.62 23.4529L24.8623 22.4827L17.7493 20.706L17.507 21.6761ZM37.3313 21.5737L43.9775 24.6729L44.4002 23.7666L37.7539 20.6674L37.3313 21.5737ZM35.8815 26.8518L40.8662 29.1762L41.2888 28.2699L36.3041 25.9455L35.8815 26.8518ZM45.5582 11.9066L49.2064 18.5448L50.0827 18.0632L46.4346 11.425L45.5582 11.9066ZM49.277 17.965L43.8213 23.8808L44.5564 24.5587L50.0121 18.643L49.277 17.965ZM38.0385 21.1842L39.0634 13.2024L38.0715 13.075L37.0467 21.0569L38.0385 21.1842ZM38.6647 13.6291L46.0936 12.1563L45.8991 11.1754L38.4702 12.6482L38.6647 13.6291ZM42.9776 16.9565L40.9251 21.3581L41.8314 21.7808L43.8839 17.3791L42.9776 16.9565ZM48.4084 26.739L51.7315 28.2886L52.1541 27.3823L48.831 25.8327L48.4084 26.739ZM51.7315 28.2886L55.0546 29.8382L55.4773 28.9319L52.1541 27.3823L51.7315 28.2886ZM51.4897 27.6242L44.3059 43.0298L45.2122 43.4525L52.396 28.0468L51.4897 27.6242ZM54.0113 22.3869L54.7688 29.4385L55.7631 29.3317L55.0056 22.2801L54.0113 22.3869ZM55.4773 28.9319L48.831 25.8327L48.4084 26.739L55.0546 29.8382L55.4773 28.9319ZM48.8983 26.701L54.7871 22.7486L54.2298 21.9183L48.341 25.8707L48.8983 26.701ZM16.0308 29.7385L23.0669 1.26822L22.0961 1.0283L15.06 29.4986L16.0308 29.7385ZM14.6396 29.7479L15.3341 30.0717L15.7567 29.1654L15.0622 28.8416L14.6396 29.7479ZM15.3341 30.0717L26.8333 35.4339L27.256 34.5276L15.7567 29.1654L15.3341 30.0717ZM34.175 4.04537L26.5592 34.8608L27.53 35.1007L35.1457 4.28529L34.175 4.04537ZM26.8333 35.4339L30.1475 36.9794L30.5701 36.0731L27.256 34.5276L26.8333 35.4339ZM30.812 36.7375L37.9957 21.3319L37.0894 20.9092L29.9057 36.3149L30.812 36.7375ZM30.1475 36.9794L36.7938 40.0786L37.2164 39.1723L30.5701 36.0731L30.1475 36.9794ZM43.7357 24.0084L36.5519 39.4141L37.4582 39.8367L44.642 24.4311L43.7357 24.0084ZM36.7938 40.0786L41.2246 42.1447L41.6472 41.2384L37.2164 39.1723L36.7938 40.0786ZM41.8891 41.9028L49.0728 26.4972L48.1665 26.0746L40.9828 41.4802L41.8891 41.9028ZM41.2246 42.1447L47.8709 45.2439L48.2935 44.3376L41.6472 41.2384L41.2246 42.1447ZM54.8128 29.1738L47.629 44.5794L48.5353 45.0021L55.7191 29.5964L54.8128 29.1738ZM1.09938 65.7521L14.4407 37.1415L13.5344 36.7189L0.193076 65.3294L1.09938 65.7521ZM14.1988 36.4771L11.9834 35.444L11.5608 36.3503L13.7762 37.3834L14.1988 36.4771ZM45.2147 50.94L42.9993 49.9069L42.5767 50.8132L44.7921 51.8463L45.2147 50.94ZM42.9993 49.9069L14.1988 36.4771L13.7762 37.3834L42.5767 50.8132L42.9993 49.9069ZM42.3348 50.1488L28.9935 78.7593L29.8998 79.1819L43.2411 50.5714L42.3348 50.1488Z" fill="black"/>
</svg>
